<svg xmlns="http://www.w3.org/2000/svg" viewBox="0 0 95 28" width="95" height="28">
  <path d="M2.3 1.1C2.6.4 3.3 0 4 0c.5 0 1 .2 1.3.6l3.5 4.5 3.5-4.5C12.6.2 13.1 0 13.6 0c.7 0 1.4.4 1.7 1.1l6 13.7c.1.2.1.4.1.6 0 1-.8 1.8-1.8 1.8-.7 0-1.4-.4-1.7-1.1L13.6 6l-3.5 4.5c-.3.4-.8.6-1.3.6s-1-.2-1.3-.6L4 6l-4.3 10.1c-.3.7-1 1.1-1.7 1.1-1 0-1.8-.8-1.8-1.8 0-.2 0-.4.1-.6L2.3 1.1z" transform="translate(2,5) scale(0.95)" fill="#FF2D20"/>
  <text x="22" y="22" font-family="sans-serif" font-weight="bold" font-size="22" fill="#FF2D20">Laravel</text>
</svg>